<svg xmlns="http://www.w3.org/2000/svg" width="64" height="64" viewBox="0 0 64 64">
<path d="m56.18,29.54l-23.97-18.19L7.82,29.54v26.34c0,1.66,1.35,3.01,3.01,3.01h42.35c1.66,0,3.01-1.35,3.01-3.01v-26.34Z" fill="#9c9ff4"/>
<path d="m35.79,6.37l24.94,18.62c3.31,2.48-.41,7.44-4.55,4.55l-23.97-18.19L7.82,29.54c-4.13,2.89-7.85-1.65-4.55-4.55L28.21,6.37c2.25-1.68,5.33-1.68,7.57,0Z" fill="#7c7be4"/>
<g  fill="#f1f2ff">
<rect x="33" y="40" width="9" height="9" rx="2.5" ry="2.5"/>
<rect x="23" y="40" width="9" height="9" rx="2.5" ry="2.5"/>
<rect x="33" y="30" width="9" height="9" rx="2.5" ry="2.5"/>
<rect x="23" y="30" width="9" height="9" rx="2.5" ry="2.5"/>
</g>
</svg>
